<svg width="479" height="278" viewBox="0 0 479 278" fill="none" xmlns="http://www.w3.org/2000/svg">
<path d="M57.6696 199.648C45.7176 199.648 39.7416 193.258 39.7416 180.478C39.7416 174.07 41.3076 169.282 44.4396 166.114C47.5716 162.91 51.9816 161.308 57.6696 161.308C60.8016 161.308 63.6096 161.848 66.0936 162.928C68.6136 163.972 70.5936 165.592 72.0336 167.788C73.5096 169.948 74.2476 172.594 74.2476 175.726H66.2016C66.2016 173.314 65.4276 171.424 63.8796 170.056C62.3316 168.652 60.3156 167.95 57.8316 167.95C54.4476 167.95 51.9276 168.958 50.2716 170.974C48.6156 172.99 47.7876 175.888 47.7876 179.668V181.288C47.7876 189.1 51.1356 193.006 57.8316 193.006C60.4596 193.006 62.5476 192.322 64.0956 190.954C65.6796 189.586 66.4716 187.696 66.4716 185.284H74.2476C74.2476 188.452 73.5276 191.116 72.0876 193.276C70.6476 195.4 68.6856 197.002 66.2016 198.082C63.7176 199.126 60.8736 199.648 57.6696 199.648ZM86.8123 199.648C84.6163 199.648 82.6003 199.072 80.7643 197.92C78.9283 196.768 78.0103 194.68 78.0103 191.656C78.0103 188.02 79.5043 185.446 82.4923 183.934C85.4803 182.386 89.7103 181.612 95.1823 181.612V179.614C95.1823 178.354 94.8943 177.382 94.3183 176.698C93.7783 176.014 92.7343 175.672 91.1863 175.672C89.5303 175.672 88.3423 175.924 87.6223 176.428C86.9383 176.932 86.5963 177.526 86.5963 178.21V179.02H79.4683C79.4323 178.804 79.4143 178.408 79.4143 177.832C79.4143 175.456 80.4583 173.548 82.5463 172.108C84.6703 170.668 87.4783 169.948 90.9703 169.948C94.8583 169.948 97.7563 170.74 99.6643 172.324C101.608 173.908 102.58 176.194 102.58 179.182V191.71C102.58 192.358 102.76 192.844 103.12 193.168C103.48 193.456 103.93 193.6 104.47 193.6H105.982V198.784C104.83 199.36 103.408 199.648 101.716 199.648C100.24 199.648 98.9983 199.324 97.9903 198.676C97.0183 198.028 96.3523 197.11 95.9923 195.922H95.6683C94.6243 197.146 93.4183 198.082 92.0503 198.73C90.7183 199.342 88.9723 199.648 86.8123 199.648ZM89.1343 193.816C91.2223 193.816 92.7523 193.24 93.7243 192.088C94.6963 190.9 95.1823 189.334 95.1823 187.39V186.526C88.7383 186.526 85.5163 187.966 85.5163 190.846C85.5163 191.746 85.8043 192.466 86.3803 193.006C86.9923 193.546 87.9103 193.816 89.1343 193.816ZM119.788 199.648C116.188 199.648 113.398 198.424 111.418 195.976C109.438 193.492 108.448 189.748 108.448 184.744C108.448 179.848 109.438 176.158 111.418 173.674C113.434 171.19 116.098 169.948 119.41 169.948C121.318 169.948 122.992 170.29 124.432 170.974C125.908 171.658 127.06 172.63 127.888 173.89H128.212V159.958H135.61V199H129.292L128.806 195.274H128.428C127.528 196.714 126.322 197.812 124.81 198.568C123.298 199.288 121.624 199.648 119.788 199.648ZM122.164 193.222C126.196 193.222 128.212 190.576 128.212 185.284V184.42C128.212 179.056 126.196 176.374 122.164 176.374C119.968 176.374 118.402 177.04 117.466 178.372C116.53 179.668 116.062 181.648 116.062 184.312V185.284C116.062 187.948 116.53 189.946 117.466 191.278C118.402 192.574 119.968 193.222 122.164 193.222ZM149.83 199.648C147.634 199.648 145.618 199.072 143.782 197.92C141.946 196.768 141.028 194.68 141.028 191.656C141.028 188.02 142.522 185.446 145.51 183.934C148.498 182.386 152.728 181.612 158.2 181.612V179.614C158.2 178.354 157.912 177.382 157.336 176.698C156.796 176.014 155.752 175.672 154.204 175.672C152.548 175.672 151.36 175.924 150.64 176.428C149.956 176.932 149.614 177.526 149.614 178.21V179.02H142.486C142.45 178.804 142.432 178.408 142.432 177.832C142.432 175.456 143.476 173.548 145.564 172.108C147.688 170.668 150.496 169.948 153.988 169.948C157.876 169.948 160.774 170.74 162.682 172.324C164.626 173.908 165.598 176.194 165.598 179.182V191.71C165.598 192.358 165.778 192.844 166.138 193.168C166.498 193.456 166.948 193.6 167.488 193.6H169V198.784C167.848 199.36 166.426 199.648 164.734 199.648C163.258 199.648 162.016 199.324 161.008 198.676C160.036 198.028 159.37 197.11 159.01 195.922H158.686C157.642 197.146 156.436 198.082 155.068 198.73C153.736 199.342 151.99 199.648 149.83 199.648ZM152.152 193.816C154.24 193.816 155.77 193.24 156.742 192.088C157.714 190.9 158.2 189.334 158.2 187.39V186.526C151.756 186.526 148.534 187.966 148.534 190.846C148.534 191.746 148.822 192.466 149.398 193.006C150.01 193.546 150.928 193.816 152.152 193.816ZM184.642 199.648C180.682 199.648 177.568 198.838 175.3 197.218C173.068 195.562 171.952 193.366 171.952 190.63L172.006 189.982H179.188V190.36C179.224 191.62 179.782 192.538 180.862 193.114C181.978 193.654 183.328 193.924 184.912 193.924C186.388 193.924 187.648 193.726 188.692 193.33C189.736 192.934 190.258 192.286 190.258 191.386C190.258 190.378 189.718 189.622 188.638 189.118C187.594 188.614 185.938 188.11 183.67 187.606C181.33 187.066 179.422 186.526 177.946 185.986C176.47 185.41 175.192 184.528 174.112 183.34C173.032 182.152 172.492 180.568 172.492 178.588C172.492 175.816 173.644 173.692 175.948 172.216C178.288 170.704 181.294 169.948 184.966 169.948C188.386 169.948 191.212 170.65 193.444 172.054C195.676 173.422 196.792 175.294 196.792 177.67L196.738 178.912H189.556V178.588C189.556 177.652 189.106 176.932 188.206 176.428C187.342 175.924 186.172 175.672 184.696 175.672C183.22 175.672 182.05 175.87 181.186 176.266C180.322 176.662 179.89 177.22 179.89 177.94C179.89 178.84 180.376 179.506 181.348 179.938C182.356 180.37 183.958 180.802 186.154 181.234C188.566 181.774 190.528 182.314 192.04 182.854C193.552 183.394 194.866 184.276 195.982 185.5C197.098 186.724 197.656 188.38 197.656 190.468C197.656 196.588 193.318 199.648 184.642 199.648ZM210.922 199.648C208.258 199.648 206.35 198.928 205.198 197.488C204.046 196.048 203.47 194.23 203.47 192.034V176.644H200.068V170.596H203.632L204.874 162.604H210.868V170.596H215.782V176.644H210.868V191.278C210.868 192.826 211.642 193.6 213.19 193.6H215.782V198.784C215.17 199 214.396 199.198 213.46 199.378C212.56 199.558 211.714 199.648 210.922 199.648ZM221.29 170.596H227.608L228.202 175.186H228.58C229.192 173.566 229.984 172.288 230.956 171.352C231.928 170.416 233.206 169.948 234.79 169.948C235.834 169.948 236.77 170.11 237.598 170.434V177.346H235.546C233.134 177.346 231.388 178.012 230.308 179.344C229.228 180.64 228.688 182.62 228.688 185.284V199H221.29V170.596ZM254.914 199.648C250.054 199.648 246.436 198.442 244.06 196.03C241.684 193.618 240.496 189.874 240.496 184.798C240.496 179.722 241.684 175.978 244.06 173.566C246.436 171.154 250.054 169.948 254.914 169.948C259.774 169.948 263.392 171.154 265.768 173.566C268.18 175.978 269.386 179.722 269.386 184.798C269.386 189.874 268.18 193.618 265.768 196.03C263.392 198.442 259.774 199.648 254.914 199.648ZM254.914 193.6C257.326 193.6 259.072 192.916 260.152 191.548C261.232 190.144 261.772 188.038 261.772 185.23V184.366C261.772 181.558 261.232 179.47 260.152 178.102C259.072 176.698 257.326 175.996 254.914 175.996C252.502 175.996 250.756 176.698 249.676 178.102C248.632 179.47 248.11 181.558 248.11 184.366V185.23C248.11 188.038 248.632 190.144 249.676 191.548C250.756 192.916 252.502 193.6 254.914 193.6ZM301.659 199.648C297.699 199.648 294.585 198.838 292.317 197.218C290.085 195.562 288.969 193.366 288.969 190.63L289.023 189.982H296.205V190.36C296.241 191.62 296.799 192.538 297.879 193.114C298.995 193.654 300.345 193.924 301.929 193.924C303.405 193.924 304.665 193.726 305.709 193.33C306.753 192.934 307.275 192.286 307.275 191.386C307.275 190.378 306.735 189.622 305.655 189.118C304.611 188.614 302.955 188.11 300.687 187.606C298.347 187.066 296.439 186.526 294.963 185.986C293.487 185.41 292.209 184.528 291.129 183.34C290.049 182.152 289.509 180.568 289.509 178.588C289.509 175.816 290.661 173.692 292.965 172.216C295.305 170.704 298.311 169.948 301.983 169.948C305.403 169.948 308.229 170.65 310.461 172.054C312.693 173.422 313.809 175.294 313.809 177.67L313.755 178.912H306.573V178.588C306.573 177.652 306.123 176.932 305.223 176.428C304.359 175.924 303.189 175.672 301.713 175.672C300.237 175.672 299.067 175.87 298.203 176.266C297.339 176.662 296.907 177.22 296.907 177.94C296.907 178.84 297.393 179.506 298.365 179.938C299.373 180.37 300.975 180.802 303.171 181.234C305.583 181.774 307.545 182.314 309.057 182.854C310.569 183.394 311.883 184.276 312.999 185.5C314.115 186.724 314.673 188.38 314.673 190.468C314.673 196.588 310.335 199.648 301.659 199.648ZM326.859 199.648C324.663 199.648 322.647 199.072 320.811 197.92C318.975 196.768 318.057 194.68 318.057 191.656C318.057 188.02 319.551 185.446 322.539 183.934C325.527 182.386 329.757 181.612 335.229 181.612V179.614C335.229 178.354 334.941 177.382 334.365 176.698C333.825 176.014 332.781 175.672 331.233 175.672C329.577 175.672 328.389 175.924 327.669 176.428C326.985 176.932 326.643 177.526 326.643 178.21V179.02H319.515C319.479 178.804 319.461 178.408 319.461 177.832C319.461 175.456 320.505 173.548 322.593 172.108C324.717 170.668 327.525 169.948 331.017 169.948C334.905 169.948 337.803 170.74 339.711 172.324C341.655 173.908 342.627 176.194 342.627 179.182V191.71C342.627 192.358 342.807 192.844 343.167 193.168C343.527 193.456 343.977 193.6 344.517 193.6H346.029V198.784C344.877 199.36 343.455 199.648 341.763 199.648C340.287 199.648 339.045 199.324 338.037 198.676C337.065 198.028 336.399 197.11 336.039 195.922H335.715C334.671 197.146 333.465 198.082 332.097 198.73C330.765 199.342 329.019 199.648 326.859 199.648ZM329.181 193.816C331.269 193.816 332.799 193.24 333.771 192.088C334.743 190.9 335.229 189.334 335.229 187.39V186.526C328.785 186.526 325.563 187.966 325.563 190.846C325.563 191.746 325.851 192.466 326.427 193.006C327.039 193.546 327.957 193.816 329.181 193.816ZM350.331 159.958H357.729V199H350.331V159.958ZM362.012 170.596H369.734L374.162 182.8C374.666 184.168 375.458 187.012 376.538 191.332H376.808C377.816 187.264 378.608 184.42 379.184 182.8L383.558 170.596H391.064L380.426 199H372.596L362.012 170.596ZM408.002 199.648C403.142 199.648 399.524 198.442 397.148 196.03C394.772 193.618 393.584 189.874 393.584 184.798C393.584 179.722 394.772 175.978 397.148 173.566C399.524 171.154 403.142 169.948 408.002 169.948C412.862 169.948 416.48 171.154 418.856 173.566C421.268 175.978 422.474 179.722 422.474 184.798C422.474 189.874 421.268 193.618 418.856 196.03C416.48 198.442 412.862 199.648 408.002 199.648ZM408.002 193.6C410.414 193.6 412.16 192.916 413.24 191.548C414.32 190.144 414.86 188.038 414.86 185.23V184.366C414.86 181.558 414.32 179.47 413.24 178.102C412.16 176.698 410.414 175.996 408.002 175.996C405.59 175.996 403.844 176.698 402.764 178.102C401.72 179.47 401.198 181.558 401.198 184.366V185.23C401.198 188.038 401.72 190.144 402.764 191.548C403.844 192.916 405.59 193.6 408.002 193.6ZM429.404 161.956H437.666L435.722 188.362H431.294L429.404 161.956ZM429.836 191.602H437.288V199H429.836V191.602Z" fill="white"/>
<path d="M0.754938 235.032H3.81094V245H5.26694V235.032H8.30694V233.848H0.754938V235.032ZM17.8752 236.232H16.4192V241.048C16.4192 242.936 15.4112 243.864 13.9072 243.864C12.4352 243.864 11.4592 242.952 11.4592 241.176V236.232H10.0192V241.368C10.0192 243.88 11.6032 245.128 13.6192 245.128C14.7872 245.128 15.8592 244.616 16.4192 243.704V245H17.8752V236.232ZM19.7896 240.584C19.7896 243.304 21.5976 245.144 23.9496 245.144C25.5496 245.144 26.6856 244.328 27.2136 243.352V245H28.6856V233.16H27.2136V237.8C26.6056 236.792 25.3416 236.088 23.9656 236.088C21.5976 236.088 19.7896 237.848 19.7896 240.584ZM27.2136 240.6C27.2136 242.664 25.8376 243.864 24.2376 243.864C22.6376 243.864 21.2776 242.648 21.2776 240.584C21.2776 238.52 22.6376 237.352 24.2376 237.352C25.8376 237.352 27.2136 238.568 27.2136 240.6ZM39.4661 240.6C39.4661 237.832 37.5301 236.088 35.0341 236.088C32.5541 236.088 30.6021 237.832 30.6021 240.6C30.6021 243.384 32.4901 245.144 34.9701 245.144C37.4661 245.144 39.4661 243.384 39.4661 240.6ZM32.0901 240.6C32.0901 238.392 33.4821 237.352 35.0181 237.352C36.5221 237.352 37.9781 238.392 37.9781 240.6C37.9781 242.824 36.4901 243.864 34.9701 243.864C33.4501 243.864 32.0901 242.824 32.0901 240.6ZM45.1021 240.6C45.1021 243.384 46.8781 245.144 49.3741 245.144C51.5501 245.144 52.9741 243.928 53.4221 242.184H51.8541C51.5341 243.288 50.6701 243.912 49.3741 243.912C47.7741 243.912 46.5901 242.776 46.5901 240.6C46.5901 238.456 47.7741 237.32 49.3741 237.32C50.6701 237.32 51.5501 237.992 51.8541 239.048H53.4221C52.9741 237.208 51.5501 236.088 49.3741 236.088C46.8781 236.088 45.1021 237.848 45.1021 240.6ZM59.0928 237.32C60.5968 237.32 61.8768 238.264 61.8608 239.976H56.3248C56.4848 238.264 57.6688 237.32 59.0928 237.32ZM63.1888 242.296H61.6208C61.3008 243.24 60.4688 243.912 59.1568 243.912C57.6688 243.912 56.4208 242.936 56.3088 241.16H63.3168C63.3488 240.856 63.3648 240.6 63.3648 240.28C63.3648 237.88 61.7008 236.088 59.1568 236.088C56.5968 236.088 54.8208 237.832 54.8208 240.6C54.8208 243.384 56.6608 245.144 59.1568 245.144C61.3328 245.144 62.7408 243.896 63.1888 242.296ZM66.7427 240.232C66.7427 238.2 67.7987 237.576 69.1907 237.576H69.5747V236.072C68.1827 236.072 67.2387 236.68 66.7427 237.656V236.232H65.2867V245H66.7427V240.232ZM71.5754 242.6C71.5754 244.36 72.4554 245 74.0074 245H75.3194V243.768H74.2474C73.3514 243.768 73.0314 243.464 73.0314 242.6V237.432H75.3194V236.232H73.0314V234.024H71.5754V236.232H70.4394V237.432H71.5754V242.6ZM85.4036 240.6C85.4036 237.832 83.4676 236.088 80.9716 236.088C78.4916 236.088 76.5396 237.832 76.5396 240.6C76.5396 243.384 78.4276 245.144 80.9076 245.144C83.4036 245.144 85.4036 243.384 85.4036 240.6ZM78.0276 240.6C78.0276 238.392 79.4196 237.352 80.9556 237.352C82.4596 237.352 83.9156 238.392 83.9156 240.6C83.9156 242.824 82.4276 243.864 80.9076 243.864C79.3876 243.864 78.0276 242.824 78.0276 240.6ZM86.0539 247.288H87.0299L88.8219 242.984H87.2219L86.0539 247.288ZM101.059 242.616C100.995 239.48 95.9074 240.616 95.9074 238.536C95.9074 237.832 96.5474 237.32 97.6194 237.32C98.7874 237.32 99.4594 237.96 99.5234 238.84H100.979C100.883 237.128 99.6034 236.088 97.6674 236.088C95.7154 236.088 94.4514 237.192 94.4514 238.536C94.4514 241.8 99.6354 240.664 99.6354 242.616C99.6354 243.336 98.9954 243.912 97.8434 243.912C96.6114 243.912 95.8594 243.272 95.7794 242.424H94.2754C94.3714 244.024 95.8114 245.144 97.8594 245.144C99.7954 245.144 101.059 244.056 101.059 242.616ZM106.843 237.32C108.347 237.32 109.627 238.264 109.611 239.976H104.075C104.235 238.264 105.419 237.32 106.843 237.32ZM110.939 242.296H109.371C109.051 243.24 108.219 243.912 106.907 243.912C105.419 243.912 104.171 242.936 104.059 241.16H111.067C111.099 240.856 111.115 240.6 111.115 240.28C111.115 237.88 109.451 236.088 106.907 236.088C104.347 236.088 102.571 237.832 102.571 240.6C102.571 243.384 104.411 245.144 106.907 245.144C109.083 245.144 110.491 243.896 110.939 242.296ZM120.813 236.232H119.357V241.048C119.357 242.936 118.349 243.864 116.845 243.864C115.373 243.864 114.397 242.952 114.397 241.176V236.232H112.957V241.368C112.957 243.88 114.541 245.128 116.557 245.128C117.725 245.128 118.797 244.616 119.357 243.704V245H120.813V236.232ZM126.993 240.6C126.993 243.384 128.769 245.144 131.265 245.144C133.441 245.144 134.865 243.928 135.313 242.184H133.745C133.425 243.288 132.561 243.912 131.265 243.912C129.665 243.912 128.481 242.776 128.481 240.6C128.481 238.456 129.665 237.32 131.265 237.32C132.561 237.32 133.441 237.992 133.745 239.048H135.313C134.865 237.208 133.441 236.088 131.265 236.088C128.769 236.088 126.993 237.848 126.993 240.6ZM136.711 240.584C136.711 243.304 138.519 245.144 140.855 245.144C142.471 245.144 143.607 244.312 144.135 243.368V245H145.607V236.232H144.135V237.832C143.623 236.92 142.503 236.088 140.871 236.088C138.519 236.088 136.711 237.848 136.711 240.584ZM144.135 240.6C144.135 242.664 142.759 243.864 141.159 243.864C139.559 243.864 138.199 242.648 138.199 240.584C138.199 238.52 139.559 237.352 141.159 237.352C142.759 237.352 144.135 238.568 144.135 240.6ZM147.524 240.584C147.524 243.304 149.332 245.144 151.684 245.144C153.284 245.144 154.42 244.328 154.948 243.352V245H156.42V233.16H154.948V237.8C154.34 236.792 153.076 236.088 151.7 236.088C149.332 236.088 147.524 237.848 147.524 240.584ZM154.948 240.6C154.948 242.664 153.572 243.864 151.972 243.864C150.372 243.864 149.012 242.648 149.012 240.584C149.012 238.52 150.372 237.352 151.972 237.352C153.572 237.352 154.948 238.568 154.948 240.6ZM158.336 240.584C158.336 243.304 160.144 245.144 162.48 245.144C164.096 245.144 165.232 244.312 165.76 243.368V245H167.232V236.232H165.76V237.832C165.248 236.92 164.128 236.088 162.496 236.088C160.144 236.088 158.336 237.848 158.336 240.584ZM165.76 240.6C165.76 242.664 164.384 243.864 162.784 243.864C161.184 243.864 159.824 242.648 159.824 240.584C159.824 238.52 161.184 237.352 162.784 237.352C164.384 237.352 165.76 238.568 165.76 240.6ZM175.997 242.616C175.933 239.48 170.845 240.616 170.845 238.536C170.845 237.832 171.485 237.32 172.557 237.32C173.725 237.32 174.397 237.96 174.461 238.84H175.917C175.821 237.128 174.541 236.088 172.605 236.088C170.653 236.088 169.389 237.192 169.389 238.536C169.389 241.8 174.573 240.664 174.573 242.616C174.573 243.336 173.933 243.912 172.781 243.912C171.549 243.912 170.797 243.272 170.717 242.424H169.213C169.309 244.024 170.749 245.144 172.797 245.144C174.733 245.144 175.997 244.056 175.997 242.616ZM178.372 242.6C178.372 244.36 179.252 245 180.804 245H182.116V243.768H181.044C180.148 243.768 179.828 243.464 179.828 242.6V237.432H182.116V236.232H179.828V234.024H178.372V236.232H177.236V237.432H178.372V242.6ZM185.336 240.232C185.336 238.2 186.392 237.576 187.784 237.576H188.168V236.072C186.776 236.072 185.832 236.68 185.336 237.656V236.232H183.88V245H185.336V240.232ZM198.169 240.6C198.169 237.832 196.233 236.088 193.737 236.088C191.257 236.088 189.305 237.832 189.305 240.6C189.305 243.384 191.193 245.144 193.673 245.144C196.169 245.144 198.169 243.384 198.169 240.6ZM190.793 240.6C190.793 238.392 192.185 237.352 193.721 237.352C195.225 237.352 196.681 238.392 196.681 240.6C196.681 242.824 195.193 243.864 193.673 243.864C192.153 243.864 190.793 242.824 190.793 240.6ZM208.077 237.32C209.581 237.32 210.861 238.264 210.845 239.976H205.309C205.469 238.264 206.653 237.32 208.077 237.32ZM212.173 242.296H210.605C210.285 243.24 209.453 243.912 208.141 243.912C206.653 243.912 205.405 242.936 205.293 241.16H212.301C212.333 240.856 212.349 240.6 212.349 240.28C212.349 237.88 210.685 236.088 208.141 236.088C205.581 236.088 203.805 237.832 203.805 240.6C203.805 243.384 205.645 245.144 208.141 245.144C210.317 245.144 211.725 243.896 212.173 242.296ZM220.575 242.616C220.511 239.48 215.423 240.616 215.423 238.536C215.423 237.832 216.063 237.32 217.135 237.32C218.303 237.32 218.975 237.96 219.039 238.84H220.495C220.399 237.128 219.119 236.088 217.183 236.088C215.231 236.088 213.967 237.192 213.967 238.536C213.967 241.8 219.151 240.664 219.151 242.616C219.151 243.336 218.511 243.912 217.359 243.912C216.127 243.912 215.375 243.272 215.295 242.424H213.791C213.887 244.024 215.327 245.144 217.375 245.144C219.311 245.144 220.575 244.056 220.575 242.616ZM222.95 242.6C222.95 244.36 223.83 245 225.382 245H226.694V243.768H225.622C224.726 243.768 224.406 243.464 224.406 242.6V237.432H226.694V236.232H224.406V234.024H222.95V236.232H221.814V237.432H222.95V242.6ZM227.915 240.584C227.915 243.304 229.723 245.144 232.059 245.144C233.675 245.144 234.811 244.312 235.339 243.368V245H236.811V236.232H235.339V237.832C234.827 236.92 233.707 236.088 232.075 236.088C229.723 236.088 227.915 237.848 227.915 240.584ZM235.339 240.6C235.339 242.664 233.963 243.864 232.363 243.864C230.763 243.864 229.403 242.648 229.403 240.584C229.403 238.52 230.763 237.352 232.363 237.352C233.963 237.352 235.339 238.568 235.339 240.6ZM230.795 234.488V235.576L234.203 233.752V232.488L230.795 234.488ZM249.953 245H251.393V239.832C251.393 237.32 249.841 236.072 247.809 236.072C246.625 236.072 245.569 236.568 244.993 237.48V236.232H243.537V245H244.993V240.152C244.993 238.264 246.017 237.336 247.505 237.336C248.977 237.336 249.953 238.248 249.953 240.04V245ZM253.227 240.584C253.227 243.304 255.035 245.144 257.371 245.144C258.987 245.144 260.123 244.312 260.651 243.368V245H262.123V236.232H260.651V237.832C260.139 236.92 259.019 236.088 257.387 236.088C255.035 236.088 253.227 237.848 253.227 240.584ZM260.651 240.6C260.651 242.664 259.275 243.864 257.675 243.864C256.075 243.864 254.715 242.648 254.715 240.584C254.715 238.52 256.075 237.352 257.675 237.352C259.275 237.352 260.651 238.568 260.651 240.6ZM275.265 245H276.705V239.832C276.705 237.32 275.153 236.072 273.121 236.072C271.937 236.072 270.881 236.568 270.305 237.48V236.232H268.849V245H270.305V240.152C270.305 238.264 271.329 237.336 272.817 237.336C274.289 237.336 275.265 238.248 275.265 240.04V245ZM287.404 240.6C287.404 237.832 285.468 236.088 282.972 236.088C280.492 236.088 278.54 237.832 278.54 240.6C278.54 243.384 280.428 245.144 282.908 245.144C285.404 245.144 287.404 243.384 287.404 240.6ZM280.028 240.6C280.028 238.392 281.42 237.352 282.956 237.352C284.46 237.352 285.916 238.392 285.916 240.6C285.916 242.824 284.428 243.864 282.908 243.864C281.388 243.864 280.028 242.824 280.028 240.6ZM295.622 242.616C295.558 239.48 290.47 240.616 290.47 238.536C290.47 237.832 291.11 237.32 292.182 237.32C293.35 237.32 294.022 237.96 294.086 238.84H295.542C295.446 237.128 294.166 236.088 292.23 236.088C290.278 236.088 289.014 237.192 289.014 238.536C289.014 241.8 294.198 240.664 294.198 242.616C294.198 243.336 293.558 243.912 292.406 243.912C291.174 243.912 290.422 243.272 290.342 242.424H288.838C288.934 244.024 290.374 245.144 292.422 245.144C294.358 245.144 295.622 244.056 295.622 242.616ZM303.981 242.616C303.917 239.48 298.829 240.616 298.829 238.536C298.829 237.832 299.469 237.32 300.541 237.32C301.709 237.32 302.381 237.96 302.445 238.84H303.901C303.805 237.128 302.525 236.088 300.589 236.088C298.637 236.088 297.373 237.192 297.373 238.536C297.373 241.8 302.557 240.664 302.557 242.616C302.557 243.336 301.917 243.912 300.765 243.912C299.533 243.912 298.781 243.272 298.701 242.424H297.197C297.293 244.024 298.733 245.144 300.781 245.144C302.717 245.144 303.981 244.056 303.981 242.616ZM305.493 240.584C305.493 243.304 307.301 245.144 309.637 245.144C311.253 245.144 312.389 244.312 312.917 243.368V245H314.389V236.232H312.917V237.832C312.405 236.92 311.285 236.088 309.653 236.088C307.301 236.088 305.493 237.848 305.493 240.584ZM312.917 240.6C312.917 242.664 311.541 243.864 309.941 243.864C308.341 243.864 306.981 242.648 306.981 240.584C306.981 238.52 308.341 237.352 309.941 237.352C311.541 237.352 312.917 238.568 312.917 240.6ZM321.115 245H322.571V233.16H321.115V245ZM325.052 245H326.508V236.232H325.052V245ZM325.804 234.808C326.332 234.808 326.764 234.376 326.764 233.816C326.764 233.256 326.332 232.824 325.804 232.824C325.244 232.824 324.812 233.256 324.812 233.816C324.812 234.376 325.244 234.808 325.804 234.808ZM335.294 242.616C335.23 239.48 330.142 240.616 330.142 238.536C330.142 237.832 330.782 237.32 331.854 237.32C333.022 237.32 333.694 237.96 333.758 238.84H335.214C335.118 237.128 333.838 236.088 331.902 236.088C329.95 236.088 328.686 237.192 328.686 238.536C328.686 241.8 333.87 240.664 333.87 242.616C333.87 243.336 333.23 243.912 332.078 243.912C330.846 243.912 330.094 243.272 330.014 242.424H328.51C328.606 244.024 330.046 245.144 332.094 245.144C334.03 245.144 335.294 244.056 335.294 242.616ZM337.669 242.6C337.669 244.36 338.549 245 340.101 245H341.413V243.768H340.341C339.445 243.768 339.125 243.464 339.125 242.6V237.432H341.413V236.232H339.125V234.024H337.669V236.232H336.533V237.432H337.669V242.6ZM342.633 240.584C342.633 243.304 344.441 245.144 346.777 245.144C348.393 245.144 349.529 244.312 350.057 243.368V245H351.529V236.232H350.057V237.832C349.545 236.92 348.425 236.088 346.793 236.088C344.441 236.088 342.633 237.848 342.633 240.584ZM350.057 240.6C350.057 242.664 348.681 243.864 347.081 243.864C345.481 243.864 344.121 242.648 344.121 240.584C344.121 238.52 345.481 237.352 347.081 237.352C348.681 237.352 350.057 238.568 350.057 240.6ZM357.711 240.584C357.711 243.304 359.519 245.144 361.871 245.144C363.471 245.144 364.607 244.328 365.135 243.352V245H366.607V233.16H365.135V237.8C364.527 236.792 363.263 236.088 361.887 236.088C359.519 236.088 357.711 237.848 357.711 240.584ZM365.135 240.6C365.135 242.664 363.759 243.864 362.159 243.864C360.559 243.864 359.199 242.648 359.199 240.584C359.199 238.52 360.559 237.352 362.159 237.352C363.759 237.352 365.135 238.568 365.135 240.6ZM372.796 237.32C374.3 237.32 375.58 238.264 375.564 239.976H370.028C370.188 238.264 371.372 237.32 372.796 237.32ZM376.892 242.296H375.324C375.004 243.24 374.172 243.912 372.86 243.912C371.372 243.912 370.124 242.936 370.012 241.16H377.02C377.052 240.856 377.068 240.6 377.068 240.28C377.068 237.88 375.404 236.088 372.86 236.088C370.3 236.088 368.524 237.832 368.524 240.6C368.524 243.384 370.364 245.144 372.86 245.144C375.036 245.144 376.444 243.896 376.892 242.296ZM384.711 237.848V236.232H383.255V249.16H384.711V243.384C385.255 244.28 386.391 245.144 387.991 245.144C390.343 245.144 392.151 243.304 392.151 240.584C392.151 237.848 390.343 236.088 387.991 236.088C386.391 236.088 385.239 236.92 384.711 237.848ZM390.663 240.584C390.663 242.648 389.303 243.864 387.687 243.864C386.103 243.864 384.711 242.664 384.711 240.6C384.711 238.568 386.103 237.352 387.687 237.352C389.303 237.352 390.663 238.52 390.663 240.584ZM395.524 240.232C395.524 238.2 396.58 237.576 397.972 237.576H398.356V236.072C396.964 236.072 396.02 236.68 395.524 237.656V236.232H394.068V245H395.524V240.232ZM408.357 240.6C408.357 237.832 406.421 236.088 403.925 236.088C401.445 236.088 399.493 237.832 399.493 240.6C399.493 243.384 401.381 245.144 403.861 245.144C406.357 245.144 408.357 243.384 408.357 240.6ZM400.981 240.6C400.981 238.392 402.373 237.352 403.909 237.352C405.413 237.352 406.869 238.392 406.869 240.6C406.869 242.824 405.381 243.864 403.861 243.864C402.341 243.864 400.981 242.824 400.981 240.6ZM410.543 245H411.999V237.432H413.839V236.232H411.999V235.608C411.999 234.472 412.431 233.992 413.743 233.992V232.776C411.503 232.776 410.543 233.656 410.543 235.608V236.232H409.407V237.432H410.543V245ZM419.265 237.32C420.769 237.32 422.049 238.264 422.033 239.976H416.497C416.657 238.264 417.841 237.32 419.265 237.32ZM423.361 242.296H421.793C421.473 243.24 420.641 243.912 419.329 243.912C417.841 243.912 416.593 242.936 416.481 241.16H423.489C423.521 240.856 423.537 240.6 423.537 240.28C423.537 237.88 421.873 236.088 419.329 236.088C416.769 236.088 414.993 237.832 414.993 240.6C414.993 243.384 416.833 245.144 419.329 245.144C421.505 245.144 422.913 243.896 423.361 242.296ZM431.763 242.616C431.699 239.48 426.611 240.616 426.611 238.536C426.611 237.832 427.251 237.32 428.323 237.32C429.491 237.32 430.163 237.96 430.227 238.84H431.683C431.587 237.128 430.307 236.088 428.371 236.088C426.419 236.088 425.155 237.192 425.155 238.536C425.155 241.8 430.339 240.664 430.339 242.616C430.339 243.336 429.699 243.912 428.547 243.912C427.315 243.912 426.563 243.272 426.483 242.424H424.979C425.075 244.024 426.515 245.144 428.563 245.144C430.499 245.144 431.763 244.056 431.763 242.616ZM440.122 242.616C440.058 239.48 434.97 240.616 434.97 238.536C434.97 237.832 435.61 237.32 436.682 237.32C437.85 237.32 438.522 237.96 438.586 238.84H440.042C439.946 237.128 438.666 236.088 436.73 236.088C434.778 236.088 433.514 237.192 433.514 238.536C433.514 241.8 438.698 240.664 438.698 242.616C438.698 243.336 438.058 243.912 436.906 243.912C435.674 243.912 434.922 243.272 434.842 242.424H433.338C433.434 244.024 434.874 245.144 436.922 245.144C438.858 245.144 440.122 244.056 440.122 242.616ZM450.497 240.6C450.497 237.832 448.561 236.088 446.065 236.088C443.585 236.088 441.633 237.832 441.633 240.6C441.633 243.384 443.521 245.144 446.001 245.144C448.497 245.144 450.497 243.384 450.497 240.6ZM443.121 240.6C443.121 238.392 444.513 237.352 446.049 237.352C447.553 237.352 449.009 238.392 449.009 240.6C449.009 242.824 447.521 243.864 446.001 243.864C444.481 243.864 443.121 242.824 443.121 240.6ZM453.868 240.232C453.868 238.2 454.924 237.576 456.316 237.576H456.7V236.072C455.308 236.072 454.364 236.68 453.868 237.656V236.232H452.412V245H453.868V240.232ZM462.108 237.32C463.612 237.32 464.892 238.264 464.876 239.976H459.34C459.5 238.264 460.684 237.32 462.108 237.32ZM466.204 242.296H464.636C464.316 243.24 463.484 243.912 462.172 243.912C460.684 243.912 459.436 242.936 459.324 241.16H466.332C466.364 240.856 466.38 240.6 466.38 240.28C466.38 237.88 464.716 236.088 462.172 236.088C459.612 236.088 457.836 237.832 457.836 240.6C457.836 243.384 459.676 245.144 462.172 245.144C464.348 245.144 465.756 243.896 466.204 242.296ZM474.606 242.616C474.542 239.48 469.454 240.616 469.454 238.536C469.454 237.832 470.094 237.32 471.166 237.32C472.334 237.32 473.006 237.96 473.07 238.84H474.526C474.43 237.128 473.15 236.088 471.214 236.088C469.262 236.088 467.998 237.192 467.998 238.536C467.998 241.8 473.182 240.664 473.182 242.616C473.182 243.336 472.542 243.912 471.39 243.912C470.158 243.912 469.406 243.272 469.326 242.424H467.822C467.918 244.024 469.358 245.144 471.406 245.144C473.342 245.144 474.606 244.056 474.606 242.616ZM478.086 244.104C478.086 243.544 477.654 243.112 477.126 243.112C476.566 243.112 476.134 243.544 476.134 244.104C476.134 244.664 476.566 245.096 477.126 245.096C477.654 245.096 478.086 244.664 478.086 244.104ZM79.2591 271H80.7951L76.7791 259.912H75.0991L71.0671 271H72.6031L73.4991 268.52H78.3631L79.2591 271ZM77.9471 267.336H73.9151L75.9311 261.704L77.9471 267.336ZM82.0083 266.584C82.0083 269.304 83.8163 271.144 86.1683 271.144C87.7683 271.144 88.9043 270.296 89.4323 269.352V271.192C89.4323 273.064 88.2643 274.056 86.7123 274.056C85.2723 274.056 84.2323 273.336 83.9123 272.28H82.4723C82.7603 274.152 84.4083 275.32 86.7123 275.32C89.2883 275.32 90.9043 273.608 90.9043 271.192V262.232H89.4323V263.832C88.9203 262.888 87.7683 262.088 86.1683 262.088C83.8163 262.088 82.0083 263.848 82.0083 266.584ZM89.4323 266.6C89.4323 268.664 88.0563 269.864 86.4563 269.864C84.8563 269.864 83.4963 268.648 83.4963 266.584C83.4963 264.52 84.8563 263.352 86.4563 263.352C88.0563 263.352 89.4323 264.568 89.4323 266.6ZM101.685 266.6C101.685 263.832 99.7488 262.088 97.2528 262.088C94.7728 262.088 92.8208 263.832 92.8208 266.6C92.8208 269.384 94.7088 271.144 97.1888 271.144C99.6848 271.144 101.685 269.384 101.685 266.6ZM94.3088 266.6C94.3088 264.392 95.7008 263.352 97.2368 263.352C98.7408 263.352 100.197 264.392 100.197 266.6C100.197 268.824 98.7088 269.864 97.1888 269.864C95.6688 269.864 94.3088 268.824 94.3088 266.6ZM105.055 266.232C105.055 264.2 106.111 263.576 107.503 263.576H107.887V262.072C106.495 262.072 105.551 262.68 105.055 263.656V262.232H103.599V271H105.055V266.232ZM109.024 266.584C109.024 269.304 110.832 271.144 113.168 271.144C114.784 271.144 115.92 270.312 116.448 269.368V271H117.92V262.232H116.448V263.832C115.936 262.92 114.816 262.088 113.184 262.088C110.832 262.088 109.024 263.848 109.024 266.584ZM116.448 266.6C116.448 268.664 115.072 269.864 113.472 269.864C111.872 269.864 110.512 268.648 110.512 266.584C110.512 264.52 111.872 263.352 113.472 263.352C115.072 263.352 116.448 264.568 116.448 266.6ZM128.374 263.32C129.878 263.32 131.158 264.264 131.142 265.976H125.606C125.766 264.264 126.95 263.32 128.374 263.32ZM132.47 268.296H130.902C130.582 269.24 129.75 269.912 128.438 269.912C126.95 269.912 125.702 268.936 125.59 267.16H132.598C132.63 266.856 132.646 266.6 132.646 266.28C132.646 263.88 130.982 262.088 128.438 262.088C125.878 262.088 124.102 263.832 124.102 266.6C124.102 269.384 125.942 271.144 128.438 271.144C130.614 271.144 132.022 269.896 132.47 268.296ZM126.534 260.488V261.576L129.942 259.752V258.488L126.534 260.488ZM145.138 268.616C145.074 265.48 139.986 266.616 139.986 264.536C139.986 263.832 140.626 263.32 141.698 263.32C142.866 263.32 143.538 263.96 143.602 264.84H145.058C144.962 263.128 143.682 262.088 141.746 262.088C139.794 262.088 138.53 263.192 138.53 264.536C138.53 267.8 143.714 266.664 143.714 268.616C143.714 269.336 143.074 269.912 141.922 269.912C140.69 269.912 139.938 269.272 139.858 268.424H138.354C138.45 270.024 139.89 271.144 141.938 271.144C143.874 271.144 145.138 270.056 145.138 268.616ZM155.513 266.6C155.513 263.832 153.577 262.088 151.081 262.088C148.601 262.088 146.649 263.832 146.649 266.6C146.649 269.384 148.537 271.144 151.017 271.144C153.513 271.144 155.513 269.384 155.513 266.6ZM148.137 266.6C148.137 264.392 149.529 263.352 151.065 263.352C152.569 263.352 154.025 264.392 154.025 266.6C154.025 268.824 152.537 269.864 151.017 269.864C149.497 269.864 148.137 268.824 148.137 266.6ZM149.241 260.376V261.464L152.649 259.64V258.376L149.241 260.376ZM161.965 271H163.421V263.432H165.261V262.232H163.421V261.608C163.421 260.472 163.853 259.992 165.165 259.992V258.776C162.925 258.776 161.965 259.656 161.965 261.608V262.232H160.829V263.432H161.965V271ZM166.959 271H168.415V262.232H166.959V271ZM167.711 260.808C168.239 260.808 168.671 260.376 168.671 259.816C168.671 259.256 168.239 258.824 167.711 258.824C167.151 258.824 166.719 259.256 166.719 259.816C166.719 260.376 167.151 260.808 167.711 260.808ZM170.352 266.6C170.352 269.384 172.128 271.144 174.624 271.144C176.8 271.144 178.224 269.928 178.672 268.184H177.104C176.784 269.288 175.92 269.912 174.624 269.912C173.024 269.912 171.84 268.776 171.84 266.6C171.84 264.456 173.024 263.32 174.624 263.32C175.92 263.32 176.8 263.992 177.104 265.048H178.672C178.224 263.208 176.8 262.088 174.624 262.088C172.128 262.088 170.352 263.848 170.352 266.6ZM180.071 266.584C180.071 269.304 181.879 271.144 184.215 271.144C185.831 271.144 186.967 270.312 187.495 269.368V271H188.967V262.232H187.495V263.832C186.983 262.92 185.863 262.088 184.231 262.088C181.879 262.088 180.071 263.848 180.071 266.584ZM187.495 266.6C187.495 268.664 186.119 269.864 184.519 269.864C182.919 269.864 181.559 268.648 181.559 266.584C181.559 264.52 182.919 263.352 184.519 263.352C186.119 263.352 187.495 264.568 187.495 266.6ZM192.883 266.232C192.883 264.2 193.939 263.576 195.331 263.576H195.715V262.072C194.323 262.072 193.379 262.68 192.883 263.656V262.232H191.427V271H192.883V266.232ZM201.118 266.584C201.118 269.304 202.926 271.144 205.278 271.144C206.878 271.144 208.014 270.328 208.542 269.352V271H210.014V259.16H208.542V263.8C207.934 262.792 206.67 262.088 205.294 262.088C202.926 262.088 201.118 263.848 201.118 266.584ZM208.542 266.6C208.542 268.664 207.166 269.864 205.566 269.864C203.966 269.864 202.606 268.648 202.606 266.584C202.606 264.52 203.966 263.352 205.566 263.352C207.166 263.352 208.542 264.568 208.542 266.6ZM216.202 263.32C217.706 263.32 218.986 264.264 218.97 265.976H213.434C213.594 264.264 214.778 263.32 216.202 263.32ZM220.298 268.296H218.73C218.41 269.24 217.578 269.912 216.266 269.912C214.778 269.912 213.53 268.936 213.418 267.16H220.426C220.458 266.856 220.474 266.6 220.474 266.28C220.474 263.88 218.81 262.088 216.266 262.088C213.706 262.088 211.93 263.832 211.93 266.6C211.93 269.384 213.77 271.144 216.266 271.144C218.442 271.144 219.85 269.896 220.298 268.296ZM234.982 266.6C234.982 263.832 233.046 262.088 230.55 262.088C228.07 262.088 226.118 263.832 226.118 266.6C226.118 269.384 228.006 271.144 230.486 271.144C232.982 271.144 234.982 269.384 234.982 266.6ZM227.606 266.6C227.606 264.392 228.998 263.352 230.534 263.352C232.038 263.352 233.494 264.392 233.494 266.6C233.494 268.824 232.006 269.864 230.486 269.864C228.966 269.864 227.606 268.824 227.606 266.6ZM236.896 271H238.352V259.16H236.896V271ZM240.834 271H242.29V266.152C242.29 264.264 243.314 263.336 244.802 263.336C246.274 263.336 247.25 264.248 247.25 266.04V271H248.69V265.832C248.69 263.32 247.138 262.072 245.186 262.072C243.954 262.072 242.866 262.568 242.29 263.496V259.16H240.834V271ZM259.388 266.6C259.388 263.832 257.452 262.088 254.956 262.088C252.476 262.088 250.524 263.832 250.524 266.6C250.524 269.384 252.412 271.144 254.892 271.144C257.388 271.144 259.388 269.384 259.388 266.6ZM252.012 266.6C252.012 264.392 253.404 263.352 254.94 263.352C256.444 263.352 257.9 264.392 257.9 266.6C257.9 268.824 256.412 269.864 254.892 269.864C253.372 269.864 252.012 268.824 252.012 266.6ZM271.984 271H273.424V265.832C273.424 263.32 271.872 262.072 269.84 262.072C268.656 262.072 267.6 262.568 267.024 263.48V262.232H265.568V271H267.024V266.152C267.024 264.264 268.048 263.336 269.536 263.336C271.008 263.336 271.984 264.248 271.984 266.04V271ZM284.122 266.6C284.122 263.832 282.186 262.088 279.69 262.088C277.21 262.088 275.258 263.832 275.258 266.6C275.258 269.384 277.146 271.144 279.626 271.144C282.122 271.144 284.122 269.384 284.122 266.6ZM276.746 266.6C276.746 264.392 278.138 263.352 279.674 263.352C281.178 263.352 282.634 264.392 282.634 266.6C282.634 268.824 281.146 269.864 279.626 269.864C278.106 269.864 276.746 268.824 276.746 266.6ZM296.606 268.616C296.542 265.48 291.454 266.616 291.454 264.536C291.454 263.832 292.094 263.32 293.166 263.32C294.334 263.32 295.006 263.96 295.07 264.84H296.526C296.43 263.128 295.15 262.088 293.214 262.088C291.262 262.088 289.998 263.192 289.998 264.536C289.998 267.8 295.182 266.664 295.182 268.616C295.182 269.336 294.542 269.912 293.39 269.912C292.158 269.912 291.406 269.272 291.326 268.424H289.822C289.918 270.024 291.358 271.144 293.406 271.144C295.342 271.144 296.606 270.056 296.606 268.616ZM302.39 263.32C303.894 263.32 305.174 264.264 305.158 265.976H299.622C299.782 264.264 300.966 263.32 302.39 263.32ZM306.486 268.296H304.918C304.598 269.24 303.766 269.912 302.454 269.912C300.966 269.912 299.718 268.936 299.606 267.16H306.614C306.646 266.856 306.662 266.6 306.662 266.28C306.662 263.88 304.998 262.088 302.454 262.088C299.894 262.088 298.118 263.832 298.118 266.6C298.118 269.384 299.958 271.144 302.454 271.144C304.63 271.144 306.038 269.896 306.486 268.296ZM316.36 262.232H314.904V267.048C314.904 268.936 313.896 269.864 312.392 269.864C310.92 269.864 309.944 268.952 309.944 267.176V262.232H308.504V267.368C308.504 269.88 310.088 271.128 312.104 271.128C313.272 271.128 314.344 270.616 314.904 269.704V271H316.36V262.232ZM325.34 271.016L326.956 271L329.644 262.024L332.236 271H333.868L337.1 259.848H335.532L333.084 269.272L330.524 259.848H328.892L326.204 269.304L323.772 259.848H322.22L325.34 271.016ZM338.693 271H340.149V266.152C340.149 264.264 341.173 263.336 342.661 263.336C344.133 263.336 345.109 264.248 345.109 266.04V271H346.549V265.832C346.549 263.32 344.997 262.072 343.045 262.072C341.813 262.072 340.725 262.568 340.149 263.496V259.16H338.693V271ZM348.383 266.584C348.383 269.304 350.191 271.144 352.527 271.144C354.143 271.144 355.279 270.312 355.807 269.368V271H357.279V262.232H355.807V263.832C355.295 262.92 354.175 262.088 352.543 262.088C350.191 262.088 348.383 263.848 348.383 266.584ZM355.807 266.6C355.807 268.664 354.431 269.864 352.831 269.864C351.231 269.864 349.871 268.648 349.871 266.584C349.871 264.52 351.231 263.352 352.831 263.352C354.431 263.352 355.807 264.568 355.807 266.6ZM360.06 268.6C360.06 270.36 360.94 271 362.492 271H363.804V269.768H362.732C361.836 269.768 361.516 269.464 361.516 268.6V263.432H363.804V262.232H361.516V260.024H360.06V262.232H358.924V263.432H360.06V268.6ZM371.872 268.616C371.808 265.48 366.72 266.616 366.72 264.536C366.72 263.832 367.36 263.32 368.432 263.32C369.6 263.32 370.272 263.96 370.336 264.84H371.792C371.696 263.128 370.416 262.088 368.48 262.088C366.528 262.088 365.264 263.192 365.264 264.536C365.264 267.8 370.448 266.664 370.448 268.616C370.448 269.336 369.808 269.912 368.656 269.912C367.424 269.912 366.672 269.272 366.592 268.424H365.088C365.184 270.024 366.624 271.144 368.672 271.144C370.608 271.144 371.872 270.056 371.872 268.616ZM381.415 271H382.951L378.935 259.912H377.255L373.223 271H374.759L375.655 268.52H380.519L381.415 271ZM380.103 267.336H376.071L378.087 261.704L380.103 267.336ZM386.165 263.848V262.232H384.709V275.16H386.165V269.384C386.709 270.28 387.845 271.144 389.445 271.144C391.797 271.144 393.605 269.304 393.605 266.584C393.605 263.848 391.797 262.088 389.445 262.088C387.845 262.088 386.693 262.92 386.165 263.848ZM392.117 266.584C392.117 268.648 390.757 269.864 389.141 269.864C387.557 269.864 386.165 268.664 386.165 266.6C386.165 264.568 387.557 263.352 389.141 263.352C390.757 263.352 392.117 264.52 392.117 266.584ZM396.977 263.848V262.232H395.521V275.16H396.977V269.384C397.521 270.28 398.657 271.144 400.257 271.144C402.609 271.144 404.417 269.304 404.417 266.584C404.417 263.848 402.609 262.088 400.257 262.088C398.657 262.088 397.505 262.92 396.977 263.848ZM402.929 266.584C402.929 268.648 401.569 269.864 399.953 269.864C398.369 269.864 396.977 268.664 396.977 266.6C396.977 264.568 398.369 263.352 399.953 263.352C401.569 263.352 402.929 264.52 402.929 266.584ZM407.758 270.104C407.758 269.544 407.326 269.112 406.798 269.112C406.238 269.112 405.806 269.544 405.806 270.104C405.806 270.664 406.238 271.096 406.798 271.096C407.326 271.096 407.758 270.664 407.758 270.104Z" fill="#D4C2FF"/>
<path d="M260 105H220C206.195 105 195 93.805 195 80V40C195 26.195 206.195 15 220 15H260C273.805 15 285 26.195 285 40V80C285 93.805 273.805 105 260 105Z" stroke="#04D361" stroke-width="6" stroke-linecap="round" stroke-linejoin="round"/>
<path d="M251.334 55L237.169 69.165L228.669 60.665" stroke="#04D361" stroke-width="6" stroke-linecap="round" stroke-linejoin="round"/>
</svg>
